<?xml version="1.0" encoding="UTF-8"?>
<svg width="1071px" height="212px" viewBox="0 0 1071 212" version="1.1" xmlns="http://www.w3.org/2000/svg" xmlns:xlink="http://www.w3.org/1999/xlink">
    <!-- Generator: Sketch 52.5 (67469) - http://www.bohemiancoding.com/sketch -->
    <title>our history</title>
    <desc>Created with Sketch.</desc>
    <g id="Page-1" stroke="none" stroke-width="1" fill="none" fill-rule="evenodd" fill-opacity="0.39">
        <path d="M0,138.716538 C0,126.941369 2.69245246,114.663786 8.07743814,101.88342 C13.4624238,89.1030537 21.4320831,78.4050426 31.986655,69.7890655 C42.541227,61.1730884 55.1419045,56.8651645 69.7890655,56.8651645 C80.9898358,56.8651645 89.6056836,59.9166106 95.6368676,66.0195944 C101.668052,72.1225782 104.683598,80.9179229 104.683598,92.4058923 C104.683598,104.181061 101.991146,116.458644 96.6061602,129.23901 C91.2211745,142.019376 83.2515152,152.717387 72.6969433,161.333364 C62.1423713,169.949342 49.5416938,174.257265 34.8945328,174.257265 C23.6937625,174.257265 15.0779147,171.205819 9.04673072,165.102836 C3.01554675,158.999852 0,150.204507 0,138.716538 Z M68.7120738,61.1731315 C63.3988879,61.1731315 57.5831906,66.2708415 51.2648074,76.4664144 C44.9464242,86.6619873 39.633318,99.1549667 35.3253295,113.945727 C31.0173409,128.736488 28.863379,142.521845 28.863379,155.302211 C28.863379,160.471797 29.4377688,164.205331 30.5865658,166.502925 C31.7353627,168.800519 33.6021297,169.949298 36.1869229,169.949298 C41.5001087,169.949298 47.2799067,164.995186 53.5264901,155.086812 C59.7730735,145.178439 65.0502803,132.864956 69.3582688,118.145995 C73.6662574,103.427034 75.8202194,89.4621809 75.8202194,76.2510161 C75.8202194,70.6506309 75.2458295,66.7376 74.0970325,64.511806 C72.9482356,62.2860119 71.1532673,61.1731315 68.7120738,61.1731315 Z M226.814463,135.700961 L230.907032,135.700961 L225.091276,152.071235 C222.362883,159.969214 218.449853,165.641314 213.352066,169.087705 C208.25428,172.534096 202.54628,174.257265 196.227897,174.257265 C192.350708,174.257265 189.047966,173.611077 186.319573,172.31868 C183.59118,171.026284 181.580816,169.231315 180.288419,166.933722 C178.996023,164.348928 178.349834,161.40518 178.349834,158.102389 C178.349834,154.799598 179.067821,150.13268 180.503818,144.101496 L186.319573,121.915466 C180.719188,135.41383 175.334283,145.968244 170.164697,153.579024 C164.995111,161.189804 159.753803,166.538809 154.440617,169.626201 C149.127431,172.713593 143.168137,174.257265 136.562554,174.257265 C130.100571,174.257265 125.254157,172.749492 122.023166,169.7339 C118.792174,166.718308 117.176703,162.338585 117.176703,156.594601 C117.176703,152.143013 118.110086,147.1889 119.976881,141.732115 L140.870521,78.1896012 C141.732119,75.6048081 142.162911,73.5226448 142.162911,71.943049 C142.162911,68.9274571 140.798735,67.4196837 138.070343,67.4196837 C135.772749,67.4196837 133.511089,68.6402621 131.285295,71.0814556 C129.059501,73.5226492 126.79784,77.9741705 124.500247,84.4361534 L120.623076,94.7752742 L116.530508,94.7752742 L121.915466,79.0511946 C127.085053,64.2604339 136.706083,56.8651645 150.778845,56.8651645 C163.846411,56.8651645 170.380095,62.8244593 170.380095,74.7432276 C170.380095,79.1948158 169.374913,84.6515194 167.364518,91.1135022 L147.978667,149.271057 C146.68627,153.148247 146.040082,156.235592 146.040082,158.533186 C146.040082,161.835977 147.404258,163.487348 150.13265,163.487348 C154.440639,163.487348 159.538349,159.251223 165.425933,150.778845 C171.313517,142.306468 177.236913,131.069966 183.196297,117.069003 C189.155681,103.068041 194.432888,88.0262063 199.028076,71.943049 L202.259051,59.8807414 C215.039417,59.5935422 225.450233,58.5883599 233.491812,56.8651645 L206.567018,152.932829 C205.70542,155.948421 205.274628,158.317779 205.274628,160.040974 C205.274628,162.482168 206.495206,163.702746 208.9364,163.702746 C211.664793,163.702746 214.10595,162.410369 216.259944,159.825576 C218.413938,157.240783 220.5679,152.86106 222.721894,146.686277 L226.814463,135.700961 Z M329.774875,56.8651645 C335.23166,56.8651645 339.503685,58.480636 342.591076,61.7116274 C345.678468,64.9426188 347.222141,69.1428446 347.222141,74.3124309 C347.222141,80.4872145 345.247676,85.7644213 341.298686,90.1442097 C337.349697,94.523998 332.503282,96.7138593 326.759298,96.7138593 C322.594909,96.7138593 319.363966,95.600979 317.066372,93.3751849 C314.768778,91.1493908 313.619998,87.9543472 313.619998,83.7899583 C313.619998,78.7639717 315.343168,74.2047522 318.789559,70.1121631 C322.235949,66.0195739 326.472075,63.3989202 331.498061,62.2501233 C331.210862,62.2501233 330.78007,62.1424252 330.205671,61.9270257 C329.631273,61.7116263 329.128682,61.6039282 328.697883,61.6039282 C321.374302,61.6039282 313.907234,66.9170344 306.296454,77.5434062 C298.685675,88.1697779 290.931411,107.124643 283.033432,134.408571 L273.555905,171.241689 L243.184738,171.241689 L269.463336,78.1896012 C270.181334,75.8920073 270.540328,73.6662466 270.540328,71.5122523 C270.540328,68.7838596 269.391548,67.4196837 267.093955,67.4196837 C264.365562,67.4196837 261.924405,68.7120609 259.770411,71.296854 C257.616416,73.8816471 255.390656,78.2613698 253.093062,84.4361534 L249.000493,95.4214692 L244.907924,95.4214692 L250.72368,79.0511946 C256.036866,64.2604339 265.945091,56.8651645 280.448652,56.8651645 C291.505823,56.8651645 297.034325,62.6808618 297.034325,74.3124309 C297.034325,78.4768198 296.459935,82.712945 295.311138,87.0209336 L293.587952,93.9136808 C298.901138,80.2717171 304.321942,70.6865863 309.850527,65.158001 C315.379112,59.6294157 322.020495,56.8651645 329.774875,56.8651645 Z M509.2017,136.347156 L503.816742,152.071235 C498.647155,166.861996 489.026125,174.257265 474.953363,174.257265 C461.885797,174.257265 455.352113,168.441568 455.352113,156.809999 C455.352113,151.640413 456.429094,146.040112 458.583088,140.008928 L477.753541,81.8513732 C479.045938,77.6869842 479.692126,74.52784 479.692126,72.3738457 C479.692126,69.2146541 478.327951,67.635082 475.599558,67.635082 C471.578768,67.635082 466.804153,71.3686161 461.275567,78.8357963 C455.746982,86.3029764 450.110782,96.3547989 444.366797,108.991565 C438.622812,121.628332 433.381505,135.413688 428.642717,150.348049 L423.473157,168.44151 C423.329557,168.58511 423.257759,168.800506 423.257759,169.087705 L423.257759,168.872307 L422.611564,171.241689 L392.240396,171.241689 L434.88927,27.5709889 C435.607268,24.9861957 435.966261,22.9758312 435.966261,21.539835 C435.966261,18.6678427 434.853381,16.5856794 432.627587,15.2932829 C430.401793,14.0008863 426.632359,13.3546977 421.319173,13.3546977 L422.611564,8.83133237 C432.663537,8.68773275 441.674278,7.8979467 449.644057,6.46195051 C457.613835,5.02595433 465.332199,2.87199237 472.799379,0 L443.505204,100.160233 C450.828784,83.9334761 458.044557,72.6610751 465.152738,66.3426919 C472.260919,60.0243087 480.338276,56.8651645 489.385052,56.8651645 C496.134234,56.8651645 501.088347,58.4088373 504.247538,61.496229 C507.40673,64.5836208 508.986302,68.7838467 508.986302,74.0970325 C508.986302,78.6922203 507.98112,83.7899303 505.970725,89.3903154 L484.861687,152.932829 C484.000089,155.517622 483.569297,157.599785 483.569297,159.179381 C483.569297,162.194973 485.005271,163.702746 487.877264,163.702746 C492.616051,163.702746 497.067573,158.030646 501.231961,146.686277 L505.109132,136.347156 L509.2017,136.347156 Z M557.020134,23.9092169 C557.163734,18.0216325 559.317696,13.354715 563.482085,9.90832412 C567.646474,6.46193328 572.815982,4.73876371 578.990766,4.73876371 C584.016753,4.73876371 587.929784,5.92344279 590.729976,8.29283649 C593.530169,10.6622302 594.930244,13.9290725 594.930244,18.0934614 C594.930244,23.8374462 592.776282,28.5761625 588.468293,32.3097526 C584.160305,36.0433426 578.847199,37.9101097 572.528815,37.9101097 C567.359229,37.9101097 563.410299,36.6536319 560.681906,34.1406385 C557.953513,31.6276452 556.732935,28.2172054 557.020134,23.9092169 Z M548.834997,78.1896012 C549.840194,74.88681 550.342785,72.732848 550.342785,71.7276507 C550.342785,68.8556583 549.050408,67.4196837 546.465615,67.4196837 C543.880822,67.4196837 541.511464,68.7479602 539.357469,71.4045532 C537.203475,74.0611461 534.977715,78.4049694 532.680121,84.4361534 L528.372154,95.4214692 L524.279585,95.4214692 L530.310739,79.0511946 C535.623925,64.2604339 545.603948,56.8651645 560.251109,56.8651645 C566.856692,56.8651645 571.667207,58.480636 574.682799,61.7116274 C577.698391,64.9426188 579.206164,69.1428446 579.206164,74.3124309 C579.206164,78.4768198 578.416378,82.712945 576.836782,87.0209336 L554.219956,152.932829 C553.358358,155.517622 552.927566,157.599785 552.927566,159.179381 C552.927566,162.194973 554.36354,163.702746 557.235533,163.702746 C559.389527,163.702746 561.579388,162.482168 563.805182,160.040974 C566.030976,157.599781 568.364435,153.148259 570.805629,146.686277 L574.682799,136.347156 L578.775368,136.347156 L573.175011,152.071235 C568.149024,166.861996 558.456195,174.257265 544.096233,174.257265 C531.028668,174.257265 524.494983,168.297971 524.494983,156.379202 C524.494983,151.640415 525.571964,146.183711 527.725959,140.008928 L548.834997,78.1896012 Z M604.192373,168.226112 C606.346367,169.231309 609.146518,169.7339 612.592909,169.7339 C618.049694,169.7339 622.429417,168.082529 625.732208,164.779738 C629.034999,161.476947 630.68637,156.953627 630.68637,151.209642 C630.68637,146.614454 629.681188,141.875738 627.670793,136.993351 C625.660399,132.110964 622.644852,126.582461 618.624062,120.407678 C618.049664,119.54608 616.362394,116.961326 613.562201,112.653337 C610.762009,108.345349 608.679845,104.216922 607.315649,100.267932 C605.951453,96.3189426 605.269365,92.4059117 605.269365,88.528722 C605.269365,79.1947468 608.751603,71.5840812 615.716185,65.6964969 C622.680766,59.8089125 632.265897,56.8651645 644.471864,56.8651645 C653.80584,56.8651645 661.596002,58.5524347 667.842586,61.9270257 C674.089169,65.3016168 677.212414,71.0814147 677.212414,79.266593 C677.212414,83.2873823 676.063634,86.9491176 673.76604,90.2519088 C671.468446,93.5547001 668.237503,95.2060709 664.073114,95.2060709 C660.483124,95.2060709 657.611175,93.841895 655.45718,91.1135022 C653.303186,88.3851095 652.226205,84.9387703 652.226205,80.7743814 C652.226205,77.184391 652.872394,73.8457499 654.16479,70.7583581 C655.457187,67.6709663 657.036759,65.0503126 658.903554,62.8963183 C657.036759,61.7475214 654.523803,61.1731315 651.364612,61.1731315 C646.195025,61.1731315 642.138397,62.788603 639.194605,66.0195944 C636.250813,69.2505858 634.70714,73.7380066 634.56354,79.4819913 C634.56354,83.359181 635.317427,86.8773189 636.825223,90.0365105 C638.333019,93.1957021 640.881874,97.6472235 644.471864,103.391208 L647.487441,107.914574 C652.082629,115.525353 655.349471,121.771843 657.288066,126.65423 C659.226661,131.536617 660.195944,136.418931 660.195944,141.301318 C660.195944,147.619701 658.544573,153.255902 655.241782,158.210088 C651.938991,163.164275 647.236174,167.077306 641.13319,169.949298 C635.030206,172.821291 627.886232,174.257265 619.701054,174.257265 C609.505481,174.257265 601.033231,172.2828 594.284049,168.333811 C587.534867,164.384821 584.160326,158.030634 584.160326,149.271057 C584.160326,144.963068 585.237307,141.301333 587.391302,138.285741 C589.545296,135.270149 592.489044,133.762376 596.222634,133.762376 C599.956224,133.762376 602.935871,135.341948 605.161666,138.501139 C607.38746,141.660331 608.50034,145.68106 608.50034,150.563447 C608.50034,153.722639 608.141346,156.558688 607.423348,159.071682 C606.70535,161.584675 605.628369,164.636121 604.192373,168.226112 Z M714.045532,152.932829 C713.614733,154.368825 713.399337,155.8048 713.399337,157.240796 C713.399337,159.39479 713.973726,161.010262 715.122523,162.087259 C716.27132,163.164256 717.850892,163.702746 719.861287,163.702746 C723.020479,163.702746 726.071925,162.159074 729.015717,159.071682 C731.959509,155.98429 734.580163,151.353272 736.877757,145.178488 L740.108732,136.347156 L744.201301,136.347156 L739.893334,148.84026 C734.292949,165.785015 723.523139,174.257265 707.583581,174.257265 C700.260001,174.257265 694.767398,172.354599 691.105607,168.549209 C687.443817,164.743819 685.612949,159.538411 685.612949,152.932829 C685.612949,148.76844 686.259138,144.460516 687.551535,140.008928 L709.306768,64.1887084 L689.920916,64.1887084 L690.997908,59.8807414 L710.599158,59.8807414 L719.861287,27.7863872 C732.067255,27.6427876 742.478071,26.6376053 751.094048,24.7708103 L740.970325,59.8807414 L765.310339,59.8807414 L764.664144,64.1887084 L739.677935,64.1887084 L714.045532,152.932829 Z M757.3406,138.716538 C757.3406,126.941369 760.033053,114.663786 765.418038,101.88342 C770.803024,89.1030537 778.772683,78.4050426 789.327255,69.7890655 C799.881827,61.1730884 812.482505,56.8651645 827.129666,56.8651645 C838.330436,56.8651645 846.946284,59.9166106 852.977468,66.0195944 C859.008652,72.1225782 862.024198,80.9179229 862.024198,92.4058923 C862.024198,104.181061 859.331746,116.458644 853.94676,129.23901 C848.561775,142.019376 840.592115,152.717387 830.037543,161.333364 C819.482971,169.949342 806.882294,174.257265 792.235133,174.257265 C781.034363,174.257265 772.418515,171.205819 766.387331,165.102836 C760.356147,158.999852 757.3406,150.204507 757.3406,138.716538 Z M826.052674,61.1731315 C820.739488,61.1731315 814.923791,66.2708415 808.605408,76.4664144 C802.287024,86.6619873 796.973918,99.1549667 792.66593,113.945727 C788.357941,128.736488 786.203979,142.521845 786.203979,155.302211 C786.203979,160.471797 786.778369,164.205331 787.927166,166.502925 C789.075963,168.800519 790.94273,169.949298 793.527523,169.949298 C798.840709,169.949298 804.620507,164.995186 810.86709,155.086812 C817.113674,145.178439 822.39088,132.864956 826.698869,118.145995 C831.006858,103.427034 833.160819,89.4621809 833.160819,76.2510161 C833.160819,70.6506309 832.58643,66.7376 831.437633,64.511806 C830.288836,62.2860119 828.493867,61.1731315 826.052674,61.1731315 Z M958.522659,56.8651645 C963.979445,56.8651645 968.251469,58.480636 971.338861,61.7116274 C974.426253,64.9426188 975.969926,69.1428446 975.969926,74.3124309 C975.969926,80.4872145 973.995461,85.7644213 970.046471,90.1442097 C966.097482,94.523998 961.251067,96.7138593 955.507083,96.7138593 C951.342694,96.7138593 948.111751,95.600979 945.814157,93.3751849 C943.516563,91.1493908 942.367783,87.9543472 942.367783,83.7899583 C942.367783,78.7639717 944.090953,74.2047522 947.537344,70.1121631 C950.983734,66.0195739 955.21986,63.3989202 960.245846,62.2501233 C959.958647,62.2501233 959.527855,62.1424252 958.953456,61.9270257 C958.379058,61.7116263 957.876467,61.6039282 957.445668,61.6039282 C950.122087,61.6039282 942.655019,66.9170344 935.044239,77.5434062 C927.433459,88.1697779 919.679196,107.124643 911.781217,134.408571 L902.30369,171.241689 L871.932523,171.241689 L898.211121,78.1896012 C898.929119,75.8920073 899.288113,73.6662466 899.288113,71.5122523 C899.288113,68.7838596 898.139333,67.4196837 895.841739,67.4196837 C893.113347,67.4196837 890.67219,68.7120609 888.518196,71.296854 C886.364201,73.8816471 884.138441,78.2613698 881.840847,84.4361534 L877.748278,95.4214692 L873.655709,95.4214692 L879.471465,79.0511946 C884.784651,64.2604339 894.692876,56.8651645 909.196437,56.8651645 C920.253608,56.8651645 925.78211,62.6808618 925.78211,74.3124309 C925.78211,78.4768198 925.20772,82.712945 924.058923,87.0209336 L922.335737,93.9136808 C927.648922,80.2717171 933.069727,70.6865863 938.598312,65.158001 C944.126897,59.6294157 950.76828,56.8651645 958.522659,56.8651645 Z M1056.52891,56.8651645 C1066.00648,56.8651645 1070.7452,63.3988491 1070.7452,76.4664144 C1070.7452,89.39038 1066.58087,104.791208 1058.2521,122.669361 C1049.92332,140.547513 1039.94329,156.450932 1028.31172,170.380095 C1020.98814,179.139672 1012.91079,186.893935 1004.07941,193.643117 C995.248034,200.392299 986.165494,205.346412 976.831519,208.505603 C971.087534,210.659597 965.989824,211.736578 961.538236,211.736578 C956.943049,211.736578 953.317213,210.659597 950.66062,208.505603 C948.004027,206.351609 946.67575,203.407861 946.67575,199.674271 C946.67575,195.797081 948.075825,192.602038 950.876018,190.089044 C953.676211,187.576051 957.230248,186.319573 961.538236,186.319573 C970.010614,186.319573 977.693078,191.273686 984.58586,201.182059 C994.925032,196.156073 1004.25887,189.550589 1012.58765,181.365411 L995.786574,78.4049996 C995.068576,74.3842102 994.314689,71.6917578 993.524891,70.3275614 C992.735093,68.963365 991.622213,68.2812771 990.186217,68.2812771 C988.606621,68.2812771 987.098848,69.3582581 985.662852,71.5122523 C984.226855,73.6662466 982.360088,77.9023718 980.062494,84.220755 L976.185324,94.7752742 L972.092756,94.7752742 L977.477714,79.0511946 C980.349707,70.8660164 983.975543,65.1221178 988.355331,61.8193266 C992.735119,58.5165354 997.940527,56.8651645 1003.97171,56.8651645 C1010.14649,56.8651645 1014.95701,58.5883341 1018.4034,62.0347249 C1021.84979,65.4811158 1024.21915,71.5122093 1025.51155,80.1281864 L1035.41987,154.009821 C1041.73825,144.963045 1047.19496,135.736908 1051.79015,126.331133 C1056.38533,116.925358 1059.75987,107.914617 1061.91387,99.2986395 C1056.02628,96.1394479 1051.21577,92.1187189 1047.48218,87.2363319 C1043.74859,82.3539449 1041.95362,77.1126375 1042.09722,71.5122523 C1042.09722,67.0606642 1043.3896,63.5066269 1045.97439,60.850034 C1048.55918,58.1934411 1052.07732,56.8651645 1056.52891,56.8651645 Z" id="our-history" fill="#FFFFFF"></path>
    </g>
</svg>